<svg xmlns="http://www.w3.org/2000/svg" xmlns:svg="http://www.w3.org/2000/svg" id="svg3355" width="1600" height="800" version="1.1" viewBox="0 0 1600 800" xml:space="preserve"><metadata id="metadata3361"/><defs id="defs3359"><clipPath id="clipPath3377" clipPathUnits="userSpaceOnUse"><path id="path3379" d="M 0,750 1000,750 1000,0 0,0 0,750 Z"/></clipPath><clipPath id="clipPath3405" clipPathUnits="userSpaceOnUse"><path id="path3407" d="M 0,750 1000,750 1000,0 0,0 0,750 Z"/></clipPath><clipPath id="clipPath3429" clipPathUnits="userSpaceOnUse"><path id="path3431" d="M 0,750 1000,750 1000,0 0,0 0,750 Z"/></clipPath><clipPath id="clipPath3449" clipPathUnits="userSpaceOnUse"><path id="path3451" d="M 0,750 1000,750 1000,0 0,0 0,750 Z"/></clipPath></defs><g id="g3363" transform="matrix(1.25,0,0,-1.25,0,800)"><g id="g3351" transform="translate(-17.724099,22.465438)"><text id="text3437" x="813.753" y="-50.352" fill="#393939" fill-opacity="1" fill-rule="nonzero" stroke="none" font-family="Open Sans Semibold" font-size="102.184" font-stretch="normal" font-variant="normal" font-weight="600" transform="scale(1,-1)" writing-mode="lr-tb" style="-inkscape-font-specification:OpenSans-Semibold"><tspan id="tspan3439" x="813.753" y="-50.352">Web</tspan></text><text id="text3441" x="249.08" y="-52.818" fill="#393939" fill-opacity="1" fill-rule="nonzero" stroke="none" font-family="Open Sans" font-size="102.184" font-stretch="normal" font-variant="normal" font-weight="normal" transform="scale(1,-1)" writing-mode="lr-tb" style="-inkscape-font-specification:OpenSans"><tspan id="tspan3443" x="249.08" y="-52.818">compile to</tspan></text></g><g id="g3445" transform="matrix(2.8542243,0,0,2.8542243,-73.838929,-1310.2481)"><g id="g3447" clip-path="url(#clipPath3449)"><g id="g3453" transform="translate(286.9321,553.2168)"><path id="path3455" fill="#654ff0" fill-opacity="1" fill-rule="nonzero" stroke="none" d="m 0,0 -2.429,8.484 -12.815,0 -1.868,-8.484 -7.171,0 9.227,38.101 11.247,0 L 7.398,0 0,0 Z m -39.265,0 -5.241,25.934 -0.091,0 L -50.249,0 l -7.217,0 -8.21,38.101 7.126,0 4.879,-25.934 0.09,0 5.879,25.934 6.673,0 5.283,-26.255 0.091,0 5.565,26.255 6.99,0 L -32.184,0 -39.265,0 Z m 14.745,96.101 c 0.009,-0.193 0.029,-0.384 0.029,-0.579 0,-6.816 -5.526,-12.342 -12.342,-12.342 -6.816,0 -12.342,5.526 -12.342,12.342 0,0.195 0.02,0.386 0.029,0.579 l -41.496,0 0,-107.618 107.618,0 0,107.618 -41.496,0 z"/></g><g id="g3457" transform="translate(276.1631,581.9258)"><path id="path3459" fill="#654ff0" fill-opacity="1" fill-rule="nonzero" stroke="none" d="m 0,0 -3.11,-13.981 9.682,0 L 2.997,0 0,0 Z"/></g></g></g></g></svg>